{"title":"Pi Greco Il Teorema del Delirio HDMux 720p x264 ITA AC3 ENG DTS","uid":9046325,"size":7296234033,"categoryP":"video","categoryS":"hd___movies","magnet":"?xt=urn:btih:1721abeee69642080c5b8f7ecda8c8ee707241bb&amp;dn=Pi+Greco+Il+Teorema+del+Delirio+HDMux+720p+x264+ITA+AC3+ENG+DTS+&amp;tr=udp%3A%2F%2Ftracker.openbittorrent.com%3A80&amp;tr=udp%3A%2F%2Fopen.demonii.com%3A1337&amp;tr=udp%3A%2F%2Ftracker.coppersurfer.tk%3A6969&amp;tr=udp%3A%2F%2Fexodus.desync.com%3A6969","seeders":3,"leechers":0,"uploader":"OrgazmoITA","files":1,"time":1381761369,"description":"General\nUnique ID: 295581291001879656183781071036417218050 (0xDE5EE2CC94058A8F680B5000BF7A9602)\nComplete name: Pi.Greco.Il.Teorema.del.Delirio.HDMux.720p.x264.ITA-AC3.ENG-DTS.Multisub.VeryStrangeFish.mkv\nFormat: Matroska\nFormat version : Version 4 / Version 2\nFile size: 6.80 GiB\nDuration: 1h 24mn\nOverall bit rate: 11.5 Mbps\nEncoded date: UTC 2013-10-08 19:02:59\nWriting application : mkvmerge v6.2.0 ('Promised Land') built on Apr 28 2013 18:50:30\nWriting library: libebml v1.3.0 + libmatroska v1.4.0\n\nVideo\nID: 1\nFormat: AVC\nFormat/Info : Advanced Video Codec\nFormat profile : &lt;a class=&quot;__cf_email__&quot; href=&quot;/cdn-cgi/l/email-protection&quot; data-cfemail=&quot;276f4e404f676b130916&quot;&gt;[email&amp;#160;protected]&lt;/a&gt;&lt;script cf-hash='f9e31' type=&quot;text/javascript&quot;&gt;\n/* &lt;![CDATA[ */!function(){try{var t=&quot;currentScript&quot;in document?document.currentScript:function(){for(var t=document.getElementsByTagName(&quot;script&quot;),e=t.length;e--;)if(t[e].getAttribute(&quot;cf-hash&quot;))return t[e]}();if(t&amp;&amp;t.previousSibling){var e,r,n,i,c=t.previousSibling,a=c.getAttribute(&quot;data-cfemail&quot;);if(a){for(e=&quot;&quot;,r=parseInt(a.substr(0,2),16),n=2;a.length-n;n+=2)i=parseInt(a.substr(n,2),16)^r,e+=String.fromCharCode(i);e=document.createTextNode(e),c.parentNode.replaceChild(e,c)}}}catch(u){}}();/* ]]&gt; */&lt;/script&gt;\nFormat settings, CABAC : Yes\nFormat settings, ReFrames : 8 frames\nCodec ID: V_MPEG4/ISO/AVC\nDuration: 1h 24mn\nBit rate: 9 590 Kbps\nWidth: 1 280 pixels\nHeight: 772 pixels\nDisplay aspect ratio : 1.658\nFrame rate mode: Constant\nFrame rate : 24.000 fps\nColor space : YUV\nChroma subsampling: 4:2:0\nBit depth: 8 bits\nScan type: Progressive\nBits/(Pixel*Frame): 0.404\nStream size : 5.51 GiB (81%)\nWriting library: x264 core 115 r1995 c1e60b9\nEncoding settings: cabac=1 // deblock=1:-3:-3 / analyse=0x3:0x113 / me=umh / subme=9 / psy=1 / psy_rd=1.05:0.10 // me_range=32 / chroma_me=1 / trellis=2 / 8x8dct=1 / cqm=2 / deadzone=21,11 / fast_pskip=0 / chroma_qp_offset=-2 / threads=6 / sliced_threads=0 / nr=0 / decimate=1 / interlaced=0 / bluray_compat=0 / constrained_intra=0 / bframes=6 / b_pyramid=2 / b_adapt=2 / b_bias=0 / direct=3 / weightb=1 / open_gop=0 / weightp=2 / keyint=250 / keyint_min=24 / scenecut=40 / intra_refresh=0 / rc_lookahead=40 / rc=2pass / mbtree=1 / bitrate=9590 / ratetol=1.0 / qcomp=0.60 / qpmin=1 / qpmax=63 / qpstep=4 / cplxblur=20.0 / qblur=0.5 / vbv_maxrate=40000 / vbv_bufsize=30000 / nal_hrd=none / ip_ratio=1.40 / aq=1:0.80\nLanguage: English\nDefault: No\nForced: No\n\nAudio #1\nID: 2\nFormat: AC-3\nFormat/Info : Audio Coding 3\nMode extension : CM (complete main)\nFormat settings, Endianness: Big\nCodec ID: A_AC3\nDuration: 1h 24mn\nBit rate mode: Constant\nBit rate: 448 Kbps\nChannel count: 2 channels\nChannel positions: Front: L R\nSampling rate: 48.0 KHz\nBit depth: 16 bits\nCompression mode: Lossy\nStream size : 270 MiB (4%)\nTitle: Italian AC3\nLanguage: Italian\nDefault: Yes\nForced: No\n\nAudio #2\nID: 3\nFormat: DTS\nFormat/Info : Digital Theater Systems\nMode : 16\nFormat settings, Endianness: Big\nCodec ID: A_DTS\nDuration: 1h 24mn\nBit rate mode: Constant\nBit rate: 1 509 Kbps\nChannel count: 2 channels\nChannel positions: Front: L R\nSampling rate: 48.0 KHz\nBit depth: 16 bits\nCompression mode: Lossy\nStream size : 909 MiB (13%)\nTitle: English DTS\nLanguage: English\nDefault: No\nForced: No\n\nText #1\nID: 4\nFormat: UTF-8\nCodec ID: S_TEXT/UTF8\nCodec ID/Info: UTF-8 Plain Text\nTitle: Italiano\nLanguage: Italian\nDefault: No\nForced: No\n\nText #2\nID: 5\nFormat: UTF-8\nCodec ID: S_TEXT/UTF8\nCodec ID/Info: UTF-8 Plain Text\nTitle: English\nLanguage: English\nDefault: No\nForced: No\n\nText #3\nID: 6\nFormat: UTF-8\nCodec ID: S_TEXT/UTF8\nCodec ID/Info: UTF-8 Plain Text\nTitle: Francais\nLanguage: French\nDefault: No\nForced: No\n\nText #4\nID: 7\nFormat: UTF-8\nCodec ID: S_TEXT/UTF8\nCodec ID/Info: UTF-8 Plain Text\nTitle: Espanol\nLanguage: Spanish\nDefault: No\nForced: No\n\nText #5\nID: 8\nFormat: UTF-8\nCodec ID: S_TEXT/UTF8\nCodec ID/Info: UTF-8 Plain Text\nTitle: Czech\nLanguage: Czech\nDefault: No\nForced: No","torrent":{"xt":"urn:btih:1721abeee69642080c5b8f7ecda8c8ee707241bb","amp;dn":"Pi+Greco+Il+Teorema+del+Delirio+HDMux+720p+x264+ITA+AC3+ENG+DTS+","amp;tr":["udp%3A%2F%2Ftracker.openbittorrent.com%3A80","udp%3A%2F%2Fopen.demonii.com%3A1337","udp%3A%2F%2Ftracker.coppersurfer.tk%3A6969","udp%3A%2F%2Fexodus.desync.com%3A6969"],"infoHash":"1721abeee69642080c5b8f7ecda8c8ee707241bb","infoHashBuffer":{"type":"Buffer","data":[23,33,171,238,230,150,66,8,12,91,143,126,205,168,200,238,112,114,65,187]},"announce":[],"urlList":[]}}